M48
; DRILL file {KiCad 8.0.4} date 2024-11-08T09:57:27+0800
; FORMAT={-:-/ absolute / metric / decimal}
; #@! TF.CreationDate,2024-11-08T09:57:27+08:00
; #@! TF.GenerationSoftware,Kicad,Pcbnew,8.0.4
; #@! TF.FileFunction,Plated,1,4,PTH
FMAT,2
METRIC
; #@! TA.AperFunction,Plated,PTH,ViaDrill
T1C0.300
; #@! TA.AperFunction,Plated,PTH,ComponentDrill
T2C0.650
; #@! TA.AperFunction,Plated,PTH,ComponentDrill
T3C1.000
; #@! TA.AperFunction,Plated,PTH,ComponentDrill
T4C1.500
; #@! TA.AperFunction,Plated,PTH,ComponentDrill
T5C3.200
%
G90
G05
T1
X131.0Y-87.4
X131.2Y-71.0
X131.6Y-80.4
X131.8Y-91.2
X132.2Y-84.0
X132.2Y-85.2
X132.2Y-86.4
X132.2Y-87.6
X132.2Y-118.0
X132.4Y-69.2
X132.4Y-70.0
X132.4Y-70.8
X132.4Y-72.2
X132.4Y-73.0
X132.4Y-73.8
X132.4Y-89.0
X132.4Y-106.8
X132.4Y-124.6
X132.8Y-113.4
X133.0Y-83.2
X133.3Y-84.7
X133.4Y-89.6
X133.8Y-77.0
X133.8Y-82.6
X133.8Y-88.3
X133.8Y-101.6
X134.4Y-77.8
X134.4Y-116.0
X134.5Y-69.75
X134.5Y-70.6
X134.5Y-71.4
X134.6Y-66.4
X134.6Y-68.6
X134.6Y-89.6
X134.6Y-106.8
X134.64Y-73.86
X134.75Y-73.0
X134.8Y-82.4
X134.8Y-121.2
X135.4Y-78.2
X135.4Y-110.2
X135.6Y-65.5
X135.8Y-82.4
X135.8Y-89.2
X136.2Y-79.4
X136.2Y-90.8
X136.4Y-78.2
X136.8Y-82.4
X136.8Y-89.2
X137.0Y-85.4
X137.0Y-86.9
X137.4Y-78.2
X137.8Y-82.4
X137.8Y-89.2
X138.25Y-69.75
X138.25Y-73.0
X138.25Y-74.5
X138.4Y-71.2
X138.4Y-72.0
X138.4Y-78.2
X138.5Y-68.0
X138.8Y-82.4
X138.8Y-89.2
X138.8Y-107.0
X139.0Y-100.75
X139.0Y-103.1
X139.15Y-115.125
X139.175Y-119.025
X139.3Y-76.6
X139.4Y-78.2
X139.4Y-97.3
X139.425Y-124.85
X139.45Y-122.65
X139.5Y-93.3
X139.8Y-82.4
X139.8Y-89.2
X139.8Y-131.0
X139.9Y-77.3
X140.0Y-111.0
X140.6Y-78.2
X140.8Y-79.2
X140.8Y-82.4
X140.8Y-89.2
X141.2Y-74.5
X141.2Y-76.0
X141.4Y-77.6
X141.8Y-82.4
X142.1Y-67.0
X142.1Y-68.2
X142.2Y-76.8
X142.8Y-82.4
X142.8Y-118.94
X143.0Y-66.8
X143.0Y-97.4
X143.1Y-71.75
X143.2Y-76.4
X143.2Y-102.8
X143.3Y-69.3
X143.6Y-93.75
X144.0Y-83.1
X144.2Y-74.9
X144.2Y-81.8
X144.2Y-112.0
X144.9Y-91.0
X145.1Y-69.5
X145.35Y-66.8
X146.05Y-83.75
X146.226Y-86.026
X146.4Y-74.9
X146.877Y-67.5
X147.0Y-87.95
X147.2Y-116.4
X147.4Y-70.6
X147.4Y-85.7
X147.8Y-67.2
X147.9Y-89.85
X148.0Y-71.4
X148.0Y-83.2
X148.0Y-126.0
X148.0Y-131.0
X148.7Y-89.525
X148.8Y-67.2
X149.2Y-94.86
X149.375Y-85.525
X149.4Y-80.4
X149.6Y-77.4
X149.6Y-78.2
X149.6Y-79.2
X149.6Y-110.8
X149.7Y-84.7
X150.0Y-67.2
X150.52Y-80.59
X150.55Y-82.95
X150.6Y-77.4
X150.65Y-91.6
X151.0Y-66.6
X151.4Y-79.6
X151.8Y-90.2
X151.9Y-81.0
X152.0Y-66.6
X152.6Y-108.8
X152.65Y-78.41
X152.8Y-102.8
X153.0Y-66.6
X153.35Y-97.8
X153.4Y-65.5
X153.469Y-90.931
X153.5Y-76.8
X153.511Y-80.005
X153.6Y-116.4
X153.65Y-83.95
X153.65Y-87.15
X153.9Y-78.6
X154.6Y-66.6
X154.8Y-75.4
X155.0Y-90.85
X155.188Y-85.55
X155.35Y-77.9
X155.387Y-80.862
X155.8Y-65.6
X155.95Y-108.825
X155.95Y-112.725
X156.1Y-66.6
X156.6Y-76.0
X156.6Y-90.8
X156.85Y-83.95
X156.85Y-87.15
X156.9Y-80.9
X157.0Y-66.6
X157.0Y-131.2
X157.375Y-94.8
X157.8Y-125.6
X157.8Y-128.0
X158.0Y-66.6
X158.05Y-90.2
X158.2Y-75.8
X158.6Y-94.8
X158.9Y-71.0
X159.0Y-67.0
X159.175Y-77.225
X159.4Y-73.6
X159.4Y-74.8
X159.6Y-67.5
X160.0Y-72.2
X160.0Y-83.75
X160.14Y-97.48
X160.16Y-105.75
X160.18Y-102.36
X160.25Y-115.125
X160.25Y-119.1
X160.366Y-84.966
X160.575Y-124.975
X160.6Y-67.6
X160.6Y-70.8
X160.6Y-122.5
X160.75Y-86.45
X160.8Y-94.8
X161.7Y-84.85
X161.8Y-67.6
X161.9Y-111.3
X162.0Y-70.8
X162.0Y-80.8
X162.2Y-90.6
X162.8Y-67.6
X163.1Y-81.6
X163.2Y-69.0
X163.24Y-98.18
X163.25Y-84.85
X163.3Y-75.4
X163.4Y-70.6
X163.65Y-78.45
X163.7Y-79.4
X163.8Y-102.6
X164.0Y-118.95
X164.0Y-124.2
X164.2Y-93.8
X165.25Y-72.35
X165.5Y-89.5
X165.8Y-131.0
X166.975Y-91.375
X167.4Y-110.2
X167.45Y-86.25
X167.65Y-80.5
X167.8Y-115.0
X169.4Y-103.2
X169.8Y-91.4
X170.4Y-94.86
X170.4Y-125.4
X170.6Y-112.6
X171.8Y-70.1
X172.4Y-67.2
X173.0Y-112.6
X173.4Y-77.0
X173.4Y-83.0
X173.4Y-119.8
X173.6Y-88.2
X174.0Y-131.4
X174.6Y-91.6
X174.8Y-116.4
X175.0Y-97.0
X175.2Y-67.2
X175.6Y-110.2
X176.85Y-70.0
X177.0Y-80.4
X177.1Y-72.75
X177.1Y-88.0
X178.9Y-89.8
X179.0Y-95.8
X179.8Y-99.2
X180.2Y-67.0
X180.2Y-77.6
X180.4Y-123.6
X180.6Y-72.0
X180.8Y-117.6
X181.0Y-81.2
X182.0Y-95.8
X183.0Y-114.0
X183.75Y-88.1
X184.1Y-76.1
X184.45Y-69.95
X185.75Y-91.5
X185.8Y-98.6
X186.0Y-71.6
X186.0Y-119.0
X186.3Y-83.6
X186.6Y-107.6
X186.8Y-124.6
X187.2Y-67.2
X188.0Y-75.8
T2
X136.595Y-66.91
X136.595Y-75.55
T3
X144.965Y-105.02
X144.965Y-126.56
X152.585Y-105.02
X152.585Y-126.56
X166.215Y-105.02
X166.215Y-126.56
X169.6Y-77.95
X169.6Y-80.45
X169.6Y-82.95
X173.835Y-105.02
X173.835Y-126.56
X184.1Y-77.95
X184.1Y-82.95
T4
X144.965Y-97.4
X144.965Y-118.94
X151.285Y-94.86
X151.285Y-116.4
X166.215Y-97.4
X166.215Y-118.94
X172.535Y-94.86
X172.535Y-116.4
T5
X133.94Y-95.0
X135.02Y-129.26
X167.75Y-68.75
X183.0Y-103.25
X183.0Y-129.26
T2
G00X132.695Y-66.91
M15
G01X131.395Y-66.91
M16
G05
G00X132.695Y-75.55
M15
G01X131.395Y-75.55
M16
G05
T4
G00X176.45Y-74.85
M15
G01X177.75Y-74.85
M16
G05
G00X176.45Y-86.05
M15
G01X177.75Y-86.05
M16
G05
M30
